<svg xmlns="http://www.w3.org/2000/svg" viewBox="0 0 32 32" width="32" height="32">
  <defs>
    <radialGradient id="bg" cx="16" cy="16" r="15" gradientUnits="userSpaceOnUse">
      <stop offset="0%" stop-color="#1e1c1a"/>
      <stop offset="100%" stop-color="#0a0908"/>
    </radialGradient>
    <linearGradient id="b" x1="4" y1="4" x2="28" y2="28" gradientUnits="userSpaceOnUse">
      <stop offset="0%" stop-color="#8C6B22" stop-opacity="0.6"/>
      <stop offset="50%" stop-color="#FCF6BA" stop-opacity="0.35"/>
      <stop offset="100%" stop-color="#8C6B22" stop-opacity="0.6"/>
    </linearGradient>
    <linearGradient id="rt" x1="8" y1="8" x2="24" y2="24" gradientUnits="userSpaceOnUse">
      <stop offset="0%" stop-color="#F8F1D2"/>
      <stop offset="100%" stop-color="#D4B87A"/>
    </linearGradient>
    <linearGradient id="rb" x1="24" y1="24" x2="8" y2="8" gradientUnits="userSpaceOnUse">
      <stop offset="0%" stop-color="#B38728"/>
      <stop offset="100%" stop-color="#FCF6BA"/>
    </linearGradient>
  </defs>
  <rect width="32" height="32" rx="9" fill="url(#bg)" stroke="url(#b)" stroke-width="1"/>
  <path d="M9 12.5C9 10 11 8.5 16 8.5C21 8.5 23 10 23 12C23 14 20.5 15 16.5 15.5C12.5 16 10.5 17 10.5 19C10.5 21 12.5 22.5 16 22.5" stroke="url(#rt)" stroke-width="2.2" stroke-linecap="round" fill="none"/>
  <path d="M23 19.5C23 22 21 23.5 16 23.5C11 23.5 9 22 9 20C9 18 11.5 17 15.5 16.5C19.5 16 21.5 15 21.5 13C21.5 11 19.5 9.5 16 9.5" stroke="url(#rb)" stroke-width="2.2" stroke-linecap="round" fill="none"/>
  <circle cx="16" cy="16" r="0.8" fill="#FCF6BA" opacity="0.85"/>
</svg>